# xmcd
#
# Track frame offsets:
#	150
#	16813
#	35370
#	52398
#	72055
#	92195
#	111658
#	131475
#	148518
#	169563
#
# Disc length: 2414 seconds
#
# Revision: 0
# Processed by: cddbd v1.5.2PL0 Copyright (c) Steve Scherf et al.
# Submitted via: EasyCDDAExtractor 15.3.0.1
#
DISCID=8b096c0a
DTITLE=Emmanuel - Esta Aventura
DYEAR=1994
DGENRE=Latin
TTITLE0=Esta Aventura
TTITLE1=Quiero Un Beso
TTITLE2=Por Tu Amor
TTITLE3=Un Loco Manso
TTITLE4=Voy A Luchar
TTITLE5=Por Ti
TTITLE6=No Me Pidas
TTITLE7=No Vale La Pena
TTITLE8=Alondra
TTITLE9=Desatino
EXTD=
EXTT0=
EXTT1=
EXTT2=
EXTT3=
EXTT4=
EXTT5=
EXTT6=
EXTT7=
EXTT8=
EXTT9=
PLAYORDER=
